{"accessors" : [{"bufferView" : 0, "byteOffset" : 0, "componentType" : 5123, "count" : 756, "type" : "SCALAR", "max" : [185], "min" : [0]}, {"bufferView" : 1, "byteOffset" : 0, "componentType" : 5126, "count" : 186, "type" : "VEC3", "max" : [2.8806300163269043, 4.908988952636719, -0.31450098752975464], "min" : [-2.8806300163269043, 4.867041110992432, -0.35511401295661926], "name" : "POSITION"}, {"bufferView" : 1, "byteOffset" : 12, "componentType" : 5126, "count" : 186, "type" : "VEC3", "max" : [0.994004487991333, 0.9856816530227661, 0.9927510619163513], "min" : [-0.9940066933631897, -0.9778965711593628, -0.9896501898765564], "name" : "NORMAL"}, {"bufferView" : 0, "byteOffset" : 1512, "componentType" : 5123, "count" : 564, "type" : "SCALAR", "max" : [161], "min" : [0]}, {"bufferView" : 2, "byteOffset" : 0, "componentType" : 5126, "count" : 162, "type" : "VEC3", "max" : [2.788666009902954, 4.90891695022583, -0.3122340142726898], "min" : [-2.788666009902954, 4.865471839904785, -0.35568299889564514], "name" : "POSITION"}, {"bufferView" : 2, "byteOffset" : 12, "componentType" : 5126, "count" : 162, "type" : "VEC3", "max" : [0.9998489618301392, 0.9737569689750671, 0.9741673469543457], "min" : [-0.999848484992981, -0.974941611289978, -0.9748332500457764], "name" : "NORMAL"}, {"bufferView" : 0, "byteOffset" : 2640, "componentType" : 5123, "count" : 564, "type" : "SCALAR", "max" : [161], "min" : [0]}, {"bufferView" : 3, "byteOffset" : 0, "componentType" : 5126, "count" : 162, "type" : "VEC3", "max" : [2.7308430671691895, 4.907527923583984, -0.30691400170326233], "min" : [-2.7308430671691895, 4.853409767150879, -0.35792800784111023], "name" : "POSITION"}, {"bufferView" : 3, "byteOffset" : 12, "componentType" : 5126, "count" : 162, "type" : "VEC3", "max" : [0.995474636554718, 0.9827684760093689, 0.9816165566444397], "min" : [-0.9954754710197449, -0.9725196361541748, -0.983254075050354], "name" : "NORMAL"}, {"bufferView" : 0, "byteOffset" : 3768, "componentType" : 5123, "count" : 756, "type" : "SCALAR", "max" : [185], "min" : [0]}, {"bufferView" : 4, "byteOffset" : 0, "componentType" : 5126, "count" : 186, "type" : "VEC3", "max" : [2.973598003387451, 4.945716857910156, -0.2481209933757782], "min" : [-2.973598003387451, 4.89536190032959, -0.29490798711776733], "name" : "POSITION"}, {"bufferView" : 4, "byteOffset" : 12, "componentType" : 5126, "count" : 186, "type" : "VEC3", "max" : [0.9841976165771484, 0.998893678188324, 0.9988074898719788], "min" : [-0.9842008948326111, -0.9947852492332458, -0.9998473525047302], "name" : "NORMAL"}, {"bufferView" : 0, "byteOffset" : 5280, "componentType" : 5123, "count" : 564, "type" : "SCALAR", "max" : [161], "min" : [0]}, {"bufferView" : 5, "byteOffset" : 0, "componentType" : 5126, "count" : 162, "type" : "VEC3", "max" : [2.8600330352783203, 4.938689231872559, -0.24573199450969696], "min" : [-2.8600330352783203, 4.8924241065979, -0.2924570143222809], "name" : "POSITION"}, {"bufferView" : 5, "byteOffset" : 12, "componentType" : 5126, "count" : 162, "type" : "VEC3", "max" : [0.9995742440223694, 0.9979258179664612, 0.997258722782135], "min" : [-0.9995759129524231, -0.9977089166641235, -0.9981181621551514], "name" : "NORMAL"}, {"bufferView" : 0, "byteOffset" : 6408, "componentType" : 5123, "count" : 564, "type" : "SCALAR", "max" : [161], "min" : [0]}, {"bufferView" : 6, "byteOffset" : 0, "componentType" : 5126, "count" : 162, "type" : "VEC3", "max" : [2.78617000579834, 4.936318874359131, -0.23337200284004211], "min" : [-2.78617000579834, 4.876049995422363, -0.29293298721313477], "name" : "POSITION"}, {"bufferView" : 6, "byteOffset" : 12, "componentType" : 5126, "count" : 162, "type" : "VEC3", "max" : [0.9954922199249268, 0.99922776222229, 0.9920721054077148], "min" : [-0.9954991936683655, -0.9881716370582581, -0.9993336796760559], "name" : "NORMAL"}, {"bufferView" : 0, "byteOffset" : 7536, "componentType" : 5123, "count" : 756, "type" : "SCALAR", "max" : [185], "min" : [0]}, {"bufferView" : 7, "byteOffset" : 0, "componentType" : 5126, "count" : 186, "type" : "VEC3", "max" : [3.0044360160827637, 4.96319580078125, -0.1695380061864853], "min" : [-3.0044360160827637, 4.911445140838623, -0.21709099411964417], "name" : "POSITION"}, {"bufferView" : 7, "byteOffset" : 12, "componentType" : 5126, "count" : 186, "type" : "VEC3", "max" : [0.9786683917045593, 0.9999589323997498, 0.991787850856781], "min" : [-0.978670597076416, -0.992641270160675, -0.9989531636238098], "name" : "NORMAL"}, {"bufferView" : 0, "byteOffset" : 9048, "componentType" : 5123, "count" : 564, "type" : "SCALAR", "max" : [161], "min" : [0]}, {"bufferView" : 8, "byteOffset" : 0, "componentType" : 5126, "count" : 162, "type" : "VEC3", "max" : [2.8911550045013428, 4.954253196716309, -0.17330700159072876], "min" : [-2.8911550045013428, 4.907620906829834, -0.22110700607299805], "name" : "POSITION"}, {"bufferView" : 8, "byteOffset" : 12, "componentType" : 5126, "count" : 162, "type" : "VEC3", "max" : [0.9986847639083862, 0.9931634068489075, 0.9919819235801697], "min" : [-0.998684823513031, -0.9986942410469055, -0.999118983745575], "name" : "NORMAL"}, {"bufferView" : 0, "byteOffset" : 10176, "componentType" : 5123, "count" : 564, "type" : "SCALAR", "max" : [161], "min" : [0]}, {"bufferView" : 9, "byteOffset" : 0, "componentType" : 5126, "count" : 162, "type" : "VEC3", "max" : [2.8030059337615967, 4.95042085647583, -0.1699019968509674], "min" : [-2.8030059337615967, 4.886867046356201, -0.2272060066461563], "name" : "POSITION"}, {"bufferView" : 9, "byteOffset" : 12, "componentType" : 5126, "count" : 162, "type" : "VEC3", "max" : [0.9939959049224854, 0.9980297684669495, 0.998386800289154], "min" : [-0.9939793944358826, -0.9978361129760742, -0.9984528422355652], "name" : "NORMAL"}, {"bufferView" : 0, "byteOffset" : 11304, "componentType" : 5123, "count" : 756, "type" : "SCALAR", "max" : [185], "min" : [0]}, {"bufferView" : 10, "byteOffset" : 0, "componentType" : 5126, "count" : 186, "type" : "VEC3", "max" : [2.963931083679199, 4.950260162353516, -0.0909229964017868], "min" : [-2.963931083679199, 4.897789001464844, -0.13871200382709503], "name" : "POSITION"}, {"bufferView" : 10, "byteOffset" : 12, "componentType" : 5126, "count" : 186, "type" : "VEC3", "max" : [0.9776429533958435, 0.9961960911750793, 0.9988929033279419], "min" : [-0.977641224861145, -0.9909223318099976, -0.9973599314689636], "name" : "NORMAL"}, {"bufferView" : 0, "byteOffset" : 12816, "componentType" : 5123, "count" : 564, "type" : "SCALAR", "max" : [161], "min" : [0]}, {"bufferView" : 11, "byteOffset" : 0, "componentType" : 5126, "count" : 162, "type" : "VEC3", "max" : [2.851033926010132, 4.945440769195557, -0.09323199838399887], "min" : [-2.851033926010132, 4.897140979766846, -0.14072300493717194], "name" : "POSITION"}, {"bufferView" : 11, "byteOffset" : 12, "componentType" : 5126, "count" : 162, "type" : "VEC3", "max" : [0.999113917350769, 0.9972527027130127, 0.9994809627532959], "min" : [-0.9991141557693481, -0.9993961453437805, -0.9987971186637878], "name" : "NORMAL"}, {"bufferView" : 0, "byteOffset" : 13944, "componentType" : 5123, "count" : 564, "type" : "SCALAR", "max" : [161], "min" : [0]}, {"bufferView" : 12, "byteOffset" : 0, "componentType" : 5126, "count" : 162, "type" : "VEC3", "max" : [2.777147054672241, 4.942660808563232, -0.08845700323581696], "min" : [-2.777147054672241, 4.876247882843018, -0.15331000089645386], "name" : "POSITION"}, {"bufferView" : 12, "byteOffset" : 12, "componentType" : 5126, "count" : 162, "type" : "VEC3", "max" : [0.9918314218521118, 0.9995877742767334, 0.9975425004959106], "min" : [-0.9918369054794312, -0.9773788452148438, -0.990544319152832], "name" : "NORMAL"}, {"bufferView" : 0, "byteOffset" : 15072, "componentType" : 5123, "count" : 756, "type" : "SCALAR", "max" : [185], "min" : [0]}, {"bufferView" : 13, "byteOffset" : 0, "componentType" : 5126, "count" : 186, "type" : "VEC3", "max" : [2.7457520961761475, 4.879549980163574, 0.045242998749017715], "min" : [-2.7457520961761475, 4.817467212677002, -0.04218899831175804], "name" : "POSITION"}, {"bufferView" : 13, "byteOffset" : 12, "componentType" : 5126, "count" : 186, "type" : "VEC3", "max" : [0.9941967129707336, 0.9830763936042786, 0.955420732498169], "min" : [-0.9941964745521545, -0.9795913100242615, -0.9458791613578796], "name" : "NORMAL"}, {"bufferView" : 0, "byteOffset" : 16584, "componentType" : 5123, "count" : 564, "type" : "SCALAR", "max" : [161], "min" : [0]}, {"bufferView" : 14, "byteOffset" : 0, "componentType" : 5126, "count" : 162, "type" : "VEC3", "max" : [2.6473770141601562, 4.874361991882324, -2.9000000722589903E-05], "min" : [-2.6473770141601562, 4.812500953674316, -0.07709299772977829], "name" : "POSITION"}, {"bufferView" : 14, "byteOffset" : 12, "componentType" : 5126, "count" : 162, "type" : "VEC3", "max" : [0.9580362439155579, 0.9734498858451843, 0.9585200548171997], "min" : [-0.9580436944961548, -0.9760534167289734, -0.9146827459335327], "name" : "NORMAL"}, {"bufferView" : 0, "byteOffset" : 17712, "componentType" : 5123, "count" : 1380, "type" : "SCALAR", "max" : [413], "min" : [0]}, {"bufferView" : 15, "byteOffset" : 0, "componentType" : 5126, "count" : 414, "type" : "VEC3", "max" : [0.5139619708061218, 0.14421600103378296, 0.5880590081214905], "min" : [-0.5139619708061218, 0, 0.27834200859069824], "name" : "POSITION"}, {"bufferView" : 15, "byteOffset" : 12, "componentType" : 5126, "count" : 414, "type" : "VEC3", "max" : [0.9997671842575073, 0.9997613430023193, 0.9987051486968994], "min" : [-0.9997671842575073, -1.0000044107437134, -0.9923306107521057], "name" : "NORMAL"}, {"bufferView" : 0, "byteOffset" : 20472, "componentType" : 5123, "count" : 2664, "type" : "SCALAR", "max" : [823], "min" : [0]}, {"bufferView" : 16, "byteOffset" : 0, "componentType" : 5126, "count" : 824, "type" : "VEC3", "max" : [0.5079730153083801, 0.31414899230003357, 0.31927400827407837], "min" : [-0.5079730153083801, -0, -0.27340900897979736], "name" : "POSITION"}, {"bufferView" : 16, "byteOffset" : 12, "componentType" : 5126, "count" : 824, "type" : "VEC3", "max" : [0.9998524188995361, 1.0000044107437134, 0.9915511012077332], "min" : [-0.9998524188995361, -1.0000044107437134, -0.9935147166252136], "name" : "NORMAL"}, {"bufferView" : 0, "byteOffset" : 25800, "componentType" : 5123, "count" : 1608, "type" : "SCALAR", "max" : [599], "min" : [0]}, {"bufferView" : 17, "byteOffset" : 0, "componentType" : 5126, "count" : 600, "type" : "VEC3", "max" : [0.483254998922348, 1.96983802318573, 0.29571399092674255], "min" : [-0.483254998922348, 0.2754580080509186, -0.19288699328899384], "name" : "POSITION"}, {"bufferView" : 17, "byteOffset" : 12, "componentType" : 5126, "count" : 600, "type" : "VEC3", "max" : [1.0000044107437134, 0.9807901382446289, 0.9988297820091248], "min" : [-1.0000044107437134, -1.0000041723251343, -0.9999827146530151], "name" : "NORMAL"}, {"bufferView" : 0, "byteOffset" : 29016, "componentType" : 5123, "count" : 2820, "type" : "SCALAR", "max" : [873], "min" : [0]}, {"bufferView" : 18, "byteOffset" : 0, "componentType" : 5126, "count" : 874, "type" : "VEC3", "max" : [0.6610440015792847, 3.3881449699401855, 0.21719799935817719], "min" : [-0.6610440015792847, 1.6097890138626099, -0.18406499922275543], "name" : "POSITION"}, {"bufferView" : 18, "byteOffset" : 12, "componentType" : 5126, "count" : 874, "type" : "VEC3", "max" : [1.0000044107437134, 0.9902029037475586, 0.9999759197235107], "min" : [-1.0000044107437134, -0.9807896018028259, -0.9999759197235107], "name" : "NORMAL"}, {"bufferView" : 0, "byteOffset" : 34656, "componentType" : 5123, "count" : 564, "type" : "SCALAR", "max" : [161], "min" : [0]}, {"bufferView" : 19, "byteOffset" : 0, "componentType" : 5126, "count" : 162, "type" : "VEC3", "max" : [2.564846992492676, 4.912201881408691, -0.04118800163269043], "min" : [-2.564846992492676, 4.815365791320801, -0.19972200691699982], "name" : "POSITION"}, {"bufferView" : 19, "byteOffset" : 12, "componentType" : 5126, "count" : 162, "type" : "VEC3", "max" : [0.9944509863853455, 0.9889239072799683, 0.7938954830169678], "min" : [-0.9944512248039246, -0.9941079616546631, -0.9837350845336914], "name" : "NORMAL"}, {"bufferView" : 0, "byteOffset" : 35784, "componentType" : 5123, "count" : 3252, "type" : "SCALAR", "max" : [1013], "min" : [0]}, {"bufferView" : 20, "byteOffset" : 0, "componentType" : 5126, "count" : 1014, "type" : "VEC3", "max" : [2.6672310829162598, 4.968717098236084, -0.08337199687957764], "min" : [-2.6672310829162598, 4.8189592361450195, -0.3598319888114929], "name" : "POSITION"}, {"bufferView" : 20, "byteOffset" : 12, "componentType" : 5126, "count" : 1014, "type" : "VEC3", "max" : [0.9997398853302002, 0.9969779849052429, 0.9974619150161743], "min" : [-0.9997404217720032, -0.9974441528320312, -0.9967765212059021], "name" : "NORMAL"}, {"bufferView" : 0, "byteOffset" : 42288, "componentType" : 5123, "count" : 1512, "type" : "SCALAR", "max" : [523], "min" : [0]}, {"bufferView" : 21, "byteOffset" : 0, "componentType" : 5126, "count" : 524, "type" : "VEC3", "max" : [2.3188719749450684, 4.9677228927612305, -0.09646700322628021], "min" : [-2.3188719749450684, 4.7780890464782715, -0.3555540144443512], "name" : "POSITION"}, {"bufferView" : 21, "byteOffset" : 12, "componentType" : 5126, "count" : 524, "type" : "VEC3", "max" : [1.0000044107437134, 1.0000044107437134, 0.9985794425010681], "min" : [-1.0000044107437134, -1.0000044107437134, -1.0000044107437134], "name" : "NORMAL"}, {"bufferView" : 0, "byteOffset" : 45312, "componentType" : 5123, "count" : 1488, "type" : "SCALAR", "max" : [391], "min" : [0]}, {"bufferView" : 22, "byteOffset" : 0, "componentType" : 5126, "count" : 392, "type" : "VEC3", "max" : [0.27433401346206665, 6.026626110076904, 0.37393900752067566], "min" : [-0.27433401346206665, 5.247643947601318, -0.4094479978084564], "name" : "POSITION"}, {"bufferView" : 22, "byteOffset" : 12, "componentType" : 5126, "count" : 392, "type" : "VEC3", "max" : [0.9981300830841064, 0.9976581931114197, 0.999782919883728], "min" : [-0.9981300830841064, -0.9940343499183655, -0.9979024529457092], "name" : "NORMAL"}, {"bufferView" : 0, "byteOffset" : 48288, "componentType" : 5123, "count" : 2652, "type" : "SCALAR", "max" : [805], "min" : [0]}, {"bufferView" : 23, "byteOffset" : 0, "componentType" : 5126, "count" : 806, "type" : "VEC3", "max" : [1.6514049768447876, 5.013230800628662, -0.07581000030040741], "min" : [-1.6514049768447876, 4.762653827667236, -0.3461660146713257], "name" : "POSITION"}, {"bufferView" : 23, "byteOffset" : 12, "componentType" : 5126, "count" : 806, "type" : "VEC3", "max" : [1.0000044107437134, 1.0000044107437134, 1.0000044107437134], "min" : [-1.0000044107437134, -1.0000044107437134, -0.9999845027923584], "name" : "NORMAL"}, {"bufferView" : 0, "byteOffset" : 53592, "componentType" : 5123, "count" : 2352, "type" : "SCALAR", "max" : [625], "min" : [0]}, {"bufferView" : 24, "byteOffset" : 0, "componentType" : 5126, "count" : 626, "type" : "VEC3", "max" : [0.5865479707717896, 5.057329177856445, 0.052083998918533325], "min" : [-0.5865479707717896, 4.827559947967529, -0.27009400725364685], "name" : "POSITION"}, {"bufferView" : 24, "byteOffset" : 12, "componentType" : 5126, "count" : 626, "type" : "VEC3", "max" : [0.9998950958251953, 0.999125599861145, 0.9824263453483582], "min" : [-0.9998950958251953, -1.0000011920928955, -0.9978806972503662], "name" : "NORMAL"}, {"bufferView" : 0, "byteOffset" : 58296, "componentType" : 5123, "count" : 3954, "type" : "SCALAR", "max" : [1123], "min" : [0]}, {"bufferView" : 25, "byteOffset" : 0, "componentType" : 5126, "count" : 1124, "type" : "VEC3", "max" : [0.4668079912662506, 5.415281772613525, 0.4154469966888428], "min" : [-0.4668079912662506, 2.871648073196411, -0.5102760195732117], "name" : "POSITION"}, {"bufferView" : 25, "byteOffset" : 12, "componentType" : 5126, "count" : 1124, "type" : "VEC3", "max" : [0.9999991655349731, 0.9990821480751038, 0.9999387860298157], "min" : [-0.9999991655349731, -0.999758243560791, -0.9999513626098633], "name" : "NORMAL"}], "asset" : {"generator" : "Aspose.3D 21.4", "version" : "2.0"}, "buffers" : [{"uri" : "buffer.bin", "byteLength" : 860756}], "bufferViews" : [{"buffer" : 0, "byteOffset" : 0, "byteLength" : 66204, "target" : 34963}, {"buffer" : 0, "byteOffset" : 66208, "byteLength" : 18144, "byteStride" : 24, "target" : 34962}, {"buffer" : 0, "byteOffset" : 84356, "byteLength" : 13536, "byteStride" : 24, "target" : 34962}, {"buffer" : 0, "byteOffset" : 97896, "byteLength" : 13536, "byteStride" : 24, "target" : 34962}, {"buffer" : 0, "byteOffset" : 111436, "byteLength" : 18144, "byteStride" : 24, "target" : 34962}, {"buffer" : 0, "byteOffset" : 129584, "byteLength" : 13536, "byteStride" : 24, "target" : 34962}, {"buffer" : 0, "byteOffset" : 143124, "byteLength" : 13536, "byteStride" : 24, "target" : 34962}, {"buffer" : 0, "byteOffset" : 156664, "byteLength" : 18144, "byteStride" : 24, "target" : 34962}, {"buffer" : 0, "byteOffset" : 174812, "byteLength" : 13536, "byteStride" : 24, "target" : 34962}, {"buffer" : 0, "byteOffset" : 188352, "byteLength" : 13536, "byteStride" : 24, "target" : 34962}, {"buffer" : 0, "byteOffset" : 201892, "byteLength" : 18144, "byteStride" : 24, "target" : 34962}, {"buffer" : 0, "byteOffset" : 220040, "byteLength" : 13536, "byteStride" : 24, "target" : 34962}, {"buffer" : 0, "byteOffset" : 233580, "byteLength" : 13536, "byteStride" : 24, "target" : 34962}, {"buffer" : 0, "byteOffset" : 247120, "byteLength" : 18144, "byteStride" : 24, "target" : 34962}, {"buffer" : 0, "byteOffset" : 265268, "byteLength" : 13536, "byteStride" : 24, "target" : 34962}, {"buffer" : 0, "byteOffset" : 278808, "byteLength" : 33120, "byteStride" : 24, "target" : 34962}, {"buffer" : 0, "byteOffset" : 311932, "byteLength" : 63936, "byteStride" : 24, "target" : 34962}, {"buffer" : 0, "byteOffset" : 375872, "byteLength" : 38592, "byteStride" : 24, "target" : 34962}, {"buffer" : 0, "byteOffset" : 414468, "byteLength" : 67680, "byteStride" : 24, "target" : 34962}, {"buffer" : 0, "byteOffset" : 482152, "byteLength" : 13536, "byteStride" : 24, "target" : 34962}, {"buffer" : 0, "byteOffset" : 495692, "byteLength" : 78048, "byteStride" : 24, "target" : 34962}, {"buffer" : 0, "byteOffset" : 573744, "byteLength" : 36288, "byteStride" : 24, "target" : 34962}, {"buffer" : 0, "byteOffset" : 610036, "byteLength" : 35712, "byteStride" : 24, "target" : 34962}, {"buffer" : 0, "byteOffset" : 645752, "byteLength" : 63648, "byteStride" : 24, "target" : 34962}, {"buffer" : 0, "byteOffset" : 709404, "byteLength" : 56448, "byteStride" : 24, "target" : 34962}, {"buffer" : 0, "byteOffset" : 765856, "byteLength" : 94896, "byteStride" : 24, "target" : 34962}], "meshes" : [{"primitives" : [{"attributes" : {"POSITION" : 1, "NORMAL" : 2}, "indices" : 0, "mode" : 4}]}, {"primitives" : [{"attributes" : {"POSITION" : 4, "NORMAL" : 5}, "indices" : 3, "mode" : 4}]}, {"primitives" : [{"attributes" : {"POSITION" : 7, "NORMAL" : 8}, "indices" : 6, "mode" : 4}]}, {"primitives" : [{"attributes" : {"POSITION" : 10, "NORMAL" : 11}, "indices" : 9, "mode" : 4}]}, {"primitives" : [{"attributes" : {"POSITION" : 13, "NORMAL" : 14}, "indices" : 12, "mode" : 4}]}, {"primitives" : [{"attributes" : {"POSITION" : 16, "NORMAL" : 17}, "indices" : 15, "mode" : 4}]}, {"primitives" : [{"attributes" : {"POSITION" : 19, "NORMAL" : 20}, "indices" : 18, "mode" : 4}]}, {"primitives" : [{"attributes" : {"POSITION" : 22, "NORMAL" : 23}, "indices" : 21, "mode" : 4}]}, {"primitives" : [{"attributes" : {"POSITION" : 25, "NORMAL" : 26}, "indices" : 24, "mode" : 4}]}, {"primitives" : [{"attributes" : {"POSITION" : 28, "NORMAL" : 29}, "indices" : 27, "mode" : 4}]}, {"primitives" : [{"attributes" : {"POSITION" : 31, "NORMAL" : 32}, "indices" : 30, "mode" : 4}]}, {"primitives" : [{"attributes" : {"POSITION" : 34, "NORMAL" : 35}, "indices" : 33, "mode" : 4}]}, {"primitives" : [{"attributes" : {"POSITION" : 37, "NORMAL" : 38}, "indices" : 36, "mode" : 4}]}, {"primitives" : [{"attributes" : {"POSITION" : 40, "NORMAL" : 41}, "indices" : 39, "mode" : 4}]}, {"primitives" : [{"attributes" : {"POSITION" : 43, "NORMAL" : 44}, "indices" : 42, "mode" : 4}]}, {"primitives" : [{"attributes" : {"POSITION" : 46, "NORMAL" : 47}, "indices" : 45, "mode" : 4}]}, {"primitives" : [{"attributes" : {"POSITION" : 49, "NORMAL" : 50}, "indices" : 48, "mode" : 4}]}, {"primitives" : [{"attributes" : {"POSITION" : 52, "NORMAL" : 53}, "indices" : 51, "mode" : 4}]}, {"primitives" : [{"attributes" : {"POSITION" : 55, "NORMAL" : 56}, "indices" : 54, "mode" : 4}]}, {"primitives" : [{"attributes" : {"POSITION" : 58, "NORMAL" : 59}, "indices" : 57, "mode" : 4}]}, {"primitives" : [{"attributes" : {"POSITION" : 61, "NORMAL" : 62}, "indices" : 60, "mode" : 4}]}, {"primitives" : [{"attributes" : {"POSITION" : 64, "NORMAL" : 65}, "indices" : 63, "mode" : 4}]}, {"primitives" : [{"attributes" : {"POSITION" : 67, "NORMAL" : 68}, "indices" : 66, "mode" : 4}]}, {"primitives" : [{"attributes" : {"POSITION" : 70, "NORMAL" : 71}, "indices" : 69, "mode" : 4}]}, {"primitives" : [{"attributes" : {"POSITION" : 73, "NORMAL" : 74}, "indices" : 72, "mode" : 4}]}], "nodes" : [{"matrix" : [100, 0, 0, 0, 0, 100, 0, 0, 0, 0, 100, 0, 0, 0, 0, 1], "mesh" : 0, "name" : "free3dmodel.025"}, {"matrix" : [100, 0, 0, 0, 0, 100, 0, 0, 0, 0, 100, 0, 0, 0, 0, 1], "mesh" : 1, "name" : "free3dmodel.024"}, {"matrix" : [100, 0, 0, 0, 0, 100, 0, 0, 0, 0, 100, 0, 0, 0, 0, 1], "mesh" : 2, "name" : "free3dmodel.023"}, {"matrix" : [100, 0, 0, 0, 0, 100, 0, 0, 0, 0, 100, 0, 0, 0, 0, 1], "mesh" : 3, "name" : "free3dmodel.022"}, {"matrix" : [100, 0, 0, 0, 0, 100, 0, 0, 0, 0, 100, 0, 0, 0, 0, 1], "mesh" : 4, "name" : "free3dmodel.021"}, {"matrix" : [100, 0, 0, 0, 0, 100, 0, 0, 0, 0, 100, 0, 0, 0, 0, 1], "mesh" : 5, "name" : "free3dmodel.020"}, {"matrix" : [100, 0, 0, 0, 0, 100, 0, 0, 0, 0, 100, 0, 0, 0, 0, 1], "mesh" : 6, "name" : "free3dmodel.019"}, {"matrix" : [100, 0, 0, 0, 0, 100, 0, 0, 0, 0, 100, 0, 0, 0, 0, 1], "mesh" : 7, "name" : "free3dmodel.018"}, {"matrix" : [100, 0, 0, 0, 0, 100, 0, 0, 0, 0, 100, 0, 0, 0, 0, 1], "mesh" : 8, "name" : "free3dmodel.017"}, {"matrix" : [100, 0, 0, 0, 0, 100, 0, 0, 0, 0, 100, 0, 0, 0, 0, 1], "mesh" : 9, "name" : "free3dmodel.016"}, {"matrix" : [100, 0, 0, 0, 0, 100, 0, 0, 0, 0, 100, 0, 0, 0, 0, 1], "mesh" : 10, "name" : "free3dmodel.015"}, {"matrix" : [100, 0, 0, 0, 0, 100, 0, 0, 0, 0, 100, 0, 0, 0, 0, 1], "mesh" : 11, "name" : "free3dmodel.014"}, {"matrix" : [100, 0, 0, 0, 0, 100, 0, 0, 0, 0, 100, 0, 0, 0, 0, 1], "mesh" : 12, "name" : "free3dmodel.013"}, {"matrix" : [100, 0, 0, 0, 0, 100, 0, 0, 0, 0, 100, 0, 0, 0, 0, 1], "mesh" : 13, "name" : "free3dmodel.012"}, {"matrix" : [100, 0, 0, 0, 0, 100, 0, 0, 0, 0, 100, 0, 0, 0, 0, 1], "mesh" : 14, "name" : "free3dmodel.011"}, {"matrix" : [100, 0, 0, 0, 0, 100, 0, 0, 0, 0, 100, 0, 0, 0, 0, 1], "mesh" : 15, "name" : "free3dmodel.010"}, {"matrix" : [100, 0, 0, 0, 0, 100, 0, 0, 0, 0, 100, 0, 0, 0, 0, 1], "mesh" : 16, "name" : "free3dmodel.009"}, {"matrix" : [100, 0, 0, 0, 0, 100, 0, 0, 0, 0, 100, 0, 0, 0, 0, 1], "mesh" : 17, "name" : "free3dmodel.008"}, {"matrix" : [100, 0, 0, 0, 0, 100, 0, 0, 0, 0, 100, 0, 0, 0, 0, 1], "mesh" : 18, "name" : "free3dmodel.007"}, {"matrix" : [100, 0, 0, 0, 0, 100, 0, 0, 0, 0, 100, 0, 0, 0, 0, 1], "mesh" : 19, "name" : "free3dmodel.006"}, {"matrix" : [100, 0, 0, 0, 0, 100, 0, 0, 0, 0, 100, 0, 0, 0, 0, 1], "mesh" : 20, "name" : "free3dmodel.005"}, {"matrix" : [100, 0, 0, 0, 0, 100, 0, 0, 0, 0, 100, 0, 0, 0, 0, 1], "mesh" : 21, "name" : "free3dmodel.004"}, {"matrix" : [100, 0, 0, 0, 0, 100, 0, 0, 0, 0, 100, 0, 0, 0, 0, 1], "mesh" : 22, "name" : "free3dmodel.003"}, {"matrix" : [100, 0, 0, 0, 0, 100, 0, 0, 0, 0, 100, 0, 0, 0, 0, 1], "mesh" : 23, "name" : "free3dmodel.002"}, {"matrix" : [100, 0, 0, 0, 0, 100, 0, 0, 0, 0, 100, 0, 0, 0, 0, 1], "mesh" : 24, "name" : "free3dmodel.001"}], "scene" : 0, "scenes" : [{"nodes" : [0, 1, 2, 3, 4, 5, 6, 7, 8, 9, 10, 11, 12, 13, 14, 15, 16, 17, 18, 19, 20, 21, 22, 23, 24]}]}